<svg width="57.696" height="32" xmlns="http://www.w3.org/2000/svg"><g fill="currentColor"><path style="-inkscape-stroke:none" d="M16 0C7.175 0 0 7.175 0 16s7.175 16 16 16 16-7.175 16-16S24.825 0 16 0zm0 2c7.744 0 14 6.256 14 14s-6.256 14-14 14S2 23.744 2 16 8.256 2 16 2z" color="currentColor"/><path d="M12.224 10.112c-3.072 0-5.248 2.144-5.248 5.856 0 3.856 2.096 5.92 5.344 5.92 1.568 0 2.864-.736 3.68-1.552l-1.44-1.856c-.656.512-1.264.928-2.048.928-1.328 0-2.112-1.088-2.112-3.44s.768-3.488 2.016-3.488c.768 0 1.36.304 1.888.784l1.568-1.84c-.944-.816-2.096-1.312-3.648-1.312zm9.024 0c-3.072 0-5.248 2.144-5.248 5.856 0 3.856 2.096 5.92 5.344 5.92 1.568 0 2.864-.736 3.68-1.552l-1.44-1.856c-.656.512-1.264.928-2.048.928-1.328 0-2.112-1.088-2.112-3.44s.768-3.488 2.016-3.488c.768 0 1.36.304 1.888.784l1.568-1.84c-.944-.816-2.096-1.312-3.648-1.312z" style="line-height:1;-inkscape-font-specification:'Fira Sans Heavy';text-align:center" aria-label="CC" font-weight="900" font-size="16" font-family="Fira Sans" letter-spacing="0" text-anchor="middle"/><path d="M45.456 15.664c.992-.256 2.016-.912 2.016-2.352 0-2.176-1.968-2.88-5.088-2.88h-3.472v11.136h3.904c2.928 0 5.12-.656 5.12-3.296 0-1.744-1.264-2.352-2.48-2.608zm-2.768-2.976c1.056 0 1.44.304 1.44.96 0 .784-.352 1.088-1.36 1.088h-.56v-2.048zm.16 6.56h-.64v-2.432h.768c1.024 0 1.568.368 1.568 1.232 0 .992-.688 1.2-1.696 1.2zm14.848-8.816h-3.488l-1.664 4.544-1.648-4.544h-3.6l3.552 7.04v4.096h3.296v-4.112z" style="line-height:1;-inkscape-font-specification:'Fira Sans Heavy';text-align:center" aria-label="BY" font-weight="900" font-size="16" font-family="Fira Sans" letter-spacing="0" text-anchor="middle"/></g></svg>