<?xml version="1.0" encoding="UTF-8" standalone="no"?>
<!-- Created with Inkscape (http://www.inkscape.org/) -->

<svg
   width="512"
   height="512"
   viewBox="0 0 512 512"
   version="1.1"
   id="svg1"
   xml:space="preserve"
   xmlns="http://www.w3.org/2000/svg"
   xmlns:svg="http://www.w3.org/2000/svg"><defs
     id="defs1" /><g
     id="layer1"><path
       style="color:#000000;fill:#ffffff;stroke-linecap:round;stroke-linejoin:round;-inkscape-stroke:none;paint-order:markers fill stroke"
       d="m 164.07661,45.75581 c 0,0 -8.04693,87.07589 -5.94736,97.58595 17.61592,0.42096 70.81331,-20.78528 171.97568,-11.10844 21.25495,-9.0454 79.97699,-45.555771 83.04895,-70.627185 6.28829,24.154698 24.60697,131.274855 15.45024,141.050845 12.0617,-1.04022 30.79611,-5.06543 28.98703,-0.30963 -1.80908,4.75579 -31.55105,182.68751 -207.65978,187.73032 C 130.45555,358.49183 94.249593,346.08398 68.494555,263.44903 79.782171,258.59408 93.67034,264.35183 92.473564,258.67236 91.276788,252.99289 46.896922,137.33005 164.07661,45.75581 Z"
       id="path13" /><path
       style="fill:none;stroke:#000000;stroke-width:20;stroke-linecap:round;stroke-linejoin:round;stroke-dasharray:none;paint-order:stroke fill markers"
       d="m 224.79994,256 c 0,0 -17.5733,0.51538 -11.9982,16.35527 15.79988,14.06385 29.86771,18.24387 36.53298,14.97535 6.66528,-3.26852 9.89572,-17.39625 3.62584,-24.36344 -6.26988,-6.96718 -19.4205,-14.03119 -25.97842,-13.61893 -6.55791,0.41226 -8.00431,4.28206 -2.1822,6.65175 z"
       id="path4" /><path
       style="fill:none;stroke:#000000;stroke-width:20;stroke-linecap:round;stroke-linejoin:round;stroke-dasharray:none;paint-order:stroke fill markers"
       d="m 190.26088,339.21072 c 0,0 39.56446,1.99044 39.7834,-33.56118 2.95941,24.94711 18.1315,39.30259 36.31606,43.00369 21.24487,-4.42478 0,-0.53874 0,-0.53874"
       id="path5" /><path
       style="fill:none;stroke:#000000;stroke-width:20;stroke-linecap:round;stroke-linejoin:round;stroke-dasharray:none;paint-order:stroke fill markers"
       d="m 36.583026,221.37515 c 0,0 98.509914,22.64207 147.987704,65.877 2.0369,1.74662 2.0369,1.74662 2.0369,1.74662"
       id="path6" /><path
       style="fill:none;stroke:#000000;stroke-width:20;stroke-linecap:round;stroke-linejoin:round;stroke-dasharray:none;paint-order:stroke fill markers"
       d="m 16.841328,375.17097 c 0,0 74.762608,-55.03945 143.982782,-62.28044 1.44403,1.73186 1.80074,1.73186 1.80074,1.73186"
       id="path7" /><path
       style="fill:none;stroke:#000000;stroke-width:20;stroke-linecap:round;stroke-linejoin:round;stroke-dasharray:none;paint-order:stroke fill markers"
       d="m 68.292743,399.8893 c 0,0 89.520297,-34.63469 114.612547,-67.47848"
       id="path8" /><path
       style="fill:none;stroke:#000000;stroke-width:20;stroke-linecap:round;stroke-linejoin:round;stroke-dasharray:none;paint-order:stroke fill markers"
       d="m 279.18628,321.74489 c 0,0 82.58103,12.3922 120.39428,67.72918 1.66644,1.1098 -2.22656,-4.1261 -2.22656,-4.1261"
       id="path10" /><path
       style="fill:none;stroke:#000000;stroke-width:20;stroke-linecap:round;stroke-linejoin:round;stroke-dasharray:none;paint-order:stroke fill markers"
       d="m 279.81946,346.70324 c 0,0 53.88971,67.32909 59.31,77.78696 2.37267,2.74146 2.37267,2.74146 2.37267,2.74146"
       id="path11" /><path
       style="fill:#5e5c64;stroke:none;stroke-width:20;stroke-linecap:round;stroke-linejoin:round;stroke-dasharray:none;paint-order:stroke fill markers"
       d="m 155.29909,143.32089 c 0,0 -46.03065,59.56048 -49.29743,78.4932 -3.26679,18.93272 5.47246,9.15673 18.45261,13.83251 12.98015,4.67577 18.01427,8.60356 32.73739,2.00042 14.72313,-6.60314 74.43669,-78.00266 84.59189,-75.66825 10.1552,2.33441 4.6549,72.29362 53.19739,66.82115 48.54249,-5.47246 44.77126,0.0731 46.91432,15.8886 2.14307,15.81553 21.73331,37.11745 47.76319,16.96012 26.02988,-20.15732 33.13052,-25.54629 44.7469,-27.26492 11.61639,-1.71863 26.08903,-39.02742 10.67358,-31.99289 -15.41545,7.03454 -23.86247,24.08164 -36.41122,17.22105 -12.54875,-6.86058 29.7211,34.37601 -13.43938,-16.981 -43.16047,-51.357 -37.51058,-76.78501 -132.16373,-69.96617 -94.65316,6.81884 -107.76551,10.65618 -107.76551,10.65618 z"
       id="path12" /><path
       style="fill:none;stroke:#000000;stroke-width:20;stroke-linecap:round;stroke-linejoin:round;stroke-dasharray:none;paint-order:stroke fill markers"
       d="m 156.99162,225.32614 c 0,0 23.44498,0.90106 36.30511,12.33828 0.52359,-0.13394 -0.0226,0.1983 -0.0226,0.1983"
       id="path2" /><path
       style="fill:none;stroke:#000000;stroke-width:20;stroke-linecap:round;stroke-linejoin:round;stroke-dasharray:none;paint-order:stroke fill markers"
       d="m 262.96056,239.34825 c 0,0 36.77444,-25.38278 62.38858,-14.90925 -0.90628,0.0591 -0.50446,0.0591 -0.50446,0.0591"
       id="path3" /><path
       style="fill:none;stroke:#000000;stroke-width:20;stroke-linecap:round;stroke-linejoin:round;stroke-dasharray:none;paint-order:stroke fill markers"
       d="m 263.8265,303.16703 c 0,0 16.46611,-39.60146 239.11516,-40.92 1.5238,-0.98108 0.70623,-0.1496 0.70623,-0.1496"
       id="path9" /><path
       style="color:#000000;fill:#000000;stroke-linecap:round;stroke-linejoin:round;-inkscape-stroke:none;paint-order:markers fill stroke"
       d="m 162.10937,35.953125 a 10.001,10.001 0 0 0 -4.18945,1.923828 C 97.238023,85.298984 77.505981,140.29288 73.917969,183.59961 c -1.794006,21.65336 0.309017,40.4062 2.9375,54.16211 1.079659,5.65029 2.196751,9.83645 3.222656,13.64453 -4.457132,0.01 -9.663437,0.33192 -15.535156,2.85742 a 10.001,10.001 0 0 0 -5.595703,12.16016 c 13.231294,42.45256 30.497598,69.23161 59.736324,87.91015 29.23873,18.67855 68.88206,29.60031 128.69141,45.41211 a 10.001,10.001 0 0 0 2.8418,0.32813 c 91.40187,-2.61726 146.40371,-50.94274 177.29492,-98.52344 15.4456,-23.79035 25.13352,-47.40241 31.12305,-65.41797 2.99476,-9.00778 5.06316,-16.62431 6.43945,-22.13867 0.68814,-2.75718 1.20453,-4.99545 1.5664,-6.56836 0.18094,-0.78645 0.32586,-1.41242 0.41797,-1.79492 0.0921,-0.3825 0.33862,-0.93703 -0.12109,0.27148 1.16241,-3.05579 0.24631,-9.42146 -2.70703,-12.21484 -2.95334,-2.79338 -5.29933,-3.02108 -7.10156,-3.31445 -3.60448,-0.58674 -6.43883,-0.30326 -9.73438,-0.004 -2.14813,0.19513 -4.14153,0.47235 -6.4043,0.75781 0.12555,-3.57735 0.13012,-7.38056 -0.0625,-11.68359 -0.55202,-12.33211 -2.21311,-27.58065 -4.34765,-43.26758 C 432.311,104.80193 426.28772,72.36 422.83203,59.085937 a 10.001,10.001 0 0 0 -19.60351,1.304688 c -0.33589,2.741301 -3.25445,8.604156 -8.84961,14.931641 -5.59517,6.327484 -13.45567,13.201398 -21.96094,19.628906 -16.02767,12.112248 -34.39527,22.619538 -44.21289,27.101558 -50.01169,-4.53571 -88.62846,-1.68311 -116.83789,2.36524 -14.37834,2.06344 -26.08379,4.42336 -35.08985,6.19336 -3.28307,0.64524 -5.81224,1.06616 -8.36718,1.49609 0.0626,-2.50461 0.10274,-4.83943 0.25195,-7.97265 0.45115,-9.47336 1.25428,-21.28196 2.125,-32.771489 1.74143,-22.979048 3.74805,-44.6875 3.74805,-44.6875 A 10.001,10.001 0 0 0 162.10937,35.953125 Z m -10.03906,33.322266 c -0.69448,8.076212 -0.92339,9.977888 -1.72656,20.576171 -0.87857,11.593188 -1.69301,23.522718 -2.16016,33.332028 -0.23357,4.90466 -0.38193,9.27142 -0.40234,12.89063 -0.0204,3.6192 -0.10144,6.01054 0.54102,9.22656 a 10.001,10.001 0 0 0 9.56835,8.03906 c 6.52878,0.15602 13.15991,-1.3201 22.24415,-3.10547 9.08423,-1.78536 20.304,-4.04364 34.07226,-6.01953 27.53653,-3.95178 65.21885,-6.784 114.94531,-2.02734 a 10.001,10.001 0 0 0 4.86914,-0.75195 c 12.03496,-5.12168 32.02292,-16.598 50.45508,-30.52735 8.91623,-6.73807 17.33767,-14.004505 24.16602,-21.580075 2.75177,14.633235 5.70166,31.776715 8.11914,49.542965 2.08657,15.33442 3.68164,30.20958 4.18555,41.4668 0.25195,5.62861 0.21307,10.38076 -0.0781,13.51758 -0.2912,3.13682 -2.10097,4.67499 0.4375,1.96484 a 10.001,10.001 0 0 0 8.15625,16.79883 c 5.34644,-0.46109 10.85796,-1.27124 15.77734,-1.86328 -1.27635,5.00288 -3.0311,11.38775 -5.58398,19.06641 -5.59928,16.84175 -14.69034,38.92053 -28.91992,60.83789 C 382.43137,334.25739 334.8363,377.15172 250.9844,380.00195 192.2567,364.45768 154.39173,353.41322 129.45117,337.48047 106.70664,322.9506 93.332373,304.462 81.722656,271.41797 c 1.073555,-0.008 2.076055,-0.0795 3.183594,-0.0508 2.410759,0.0625 4.576656,0.42714 8.388672,-0.54688 1.906008,-0.48701 4.816776,-1.56374 7.046878,-4.63476 2.2301,-3.07102 2.43277,-7.12187 1.91601,-9.57422 -0.36458,-1.73018 -0.5466,-2.02457 -0.90429,-3.19141 -0.3577,-1.16684 -0.81018,-2.65654 -1.33008,-4.49414 C 98.983632,245.25059 97.683733,240.20471 96.5,234.00977 94.132535,221.61987 92.240721,204.66902 93.849609,185.25 96.691427,150.94972 110.07531,109.02001 152.07031,69.275391 Z"
       id="path14" /></g></svg>
